<?xml version="1.0" encoding="UTF-8" standalone="no"?>
<!-- Created with Inkscape (http://www.inkscape.org/) -->

<svg
   version="1.1"
   id="svg1"
   width="490"
   height="1060"
   viewBox="0 0 490.00001 1060"
   sodipodi:docname="iphone_edgetoedge_landscapeNES.svg"
   xml:space="preserve"
   inkscape:version="1.4.2 (f4327f4, 2025-05-13)"
   inkscape:export-filename="iphone_edgetoedge_landscape.pdf"
   inkscape:export-xdpi="96"
   inkscape:export-ydpi="96"
   xmlns:inkscape="http://www.inkscape.org/namespaces/inkscape"
   xmlns:sodipodi="http://sodipodi.sourceforge.net/DTD/sodipodi-0.dtd"
   xmlns="http://www.w3.org/2000/svg"
   xmlns:svg="http://www.w3.org/2000/svg"><defs
     id="defs1"><inkscape:path-effect
       effect="fillet_chamfer"
       id="path-effect54"
       is_visible="true"
       lpeversion="1"
       nodesatellites_param="F,0,1,1,0,8.3134933,0,1 @ F,0,0,1,0,8.6769642,0,1 @ F,0,0,1,0,8.0942514,0,1 @ F,0,0,1,0,7.2378256,0,1 @ F,0,0,1,0,8.3076489,0,1 @ F,0,0,1,0,8.7664713,0,1 @ F,0,0,1,0,8.9267278,0,1 @ F,0,0,1,0,10.159154,0,1 @ F,0,1,1,0,8.3134933,0,1 @ F,0,1,1,0,8.3134933,0,1 @ F,0,0,1,0,8.3134933,0,1 @ F,0,0,1,0,4.915585,0,1"
       radius="0"
       unit="px"
       method="auto"
       mode="F"
       chamfer_steps="1"
       flexible="false"
       use_knot_distance="true"
       apply_no_radius="true"
       apply_with_radius="true"
       only_selected="false"
       hide_knots="false" /><inkscape:path-effect
       effect="fillet_chamfer"
       id="path-effect52"
       is_visible="true"
       lpeversion="1"
       nodesatellites_param="F,0,0,1,0,0,0,1 @ F,0,0,1,0,0,0,1 @ F,0,0,1,0,0,0,1 @ F,0,0,1,0,0,0,1 @ F,0,0,1,0,0,0,1 @ F,0,0,1,0,0,0,1"
       radius="0"
       unit="px"
       method="auto"
       mode="F"
       chamfer_steps="1"
       flexible="false"
       use_knot_distance="true"
       apply_no_radius="true"
       apply_with_radius="true"
       only_selected="false"
       hide_knots="false" /><rect
       x="876.26935"
       y="378.87079"
       width="15.823603"
       height="18.51063"
       id="rect50" /><rect
       x="876.26935"
       y="378.87079"
       width="15.823603"
       height="18.51063"
       id="rect51" /></defs><sodipodi:namedview
     id="namedview1"
     pagecolor="#505050"
     bordercolor="#eeeeee"
     borderopacity="1"
     inkscape:showpageshadow="0"
     inkscape:pageopacity="0"
     inkscape:pagecheckerboard="0"
     inkscape:deskcolor="#505050"
     showguides="true"
     inkscape:zoom="0.5921006"
     inkscape:cx="1568.9901"
     inkscape:cy="154.53455"
     inkscape:window-width="1920"
     inkscape:window-height="1057"
     inkscape:window-x="-8"
     inkscape:window-y="-8"
     inkscape:window-maximized="1"
     inkscape:current-layer="g50"
     inkscape:lockguides="false"><sodipodi:guide
       position="-1051.4437,698.25751"
       orientation="1,0"
       id="guide57"
       inkscape:locked="false" /><sodipodi:guide
       position="-1119.7764,704.75751"
       orientation="0,-1"
       id="guide58"
       inkscape:locked="false" /><sodipodi:guide
       position="-1255.7458,322"
       orientation="0,-1"
       id="guide1"
       inkscape:locked="false" /><sodipodi:guide
       position="-229.13958,736.95213"
       orientation="0,-1"
       id="guide2"
       inkscape:locked="false" /><sodipodi:guide
       position="-1167.9228,452.66406"
       orientation="1,0"
       id="guide3"
       inkscape:locked="false" /><sodipodi:guide
       position="-183.29284,792.35927"
       orientation="1,0"
       id="guide4"
       inkscape:locked="false" /><sodipodi:guide
       position="-673.91894,766.18127"
       orientation="1,0"
       id="guide5"
       inkscape:locked="false" /><sodipodi:guide
       position="-143.75424,521.29046"
       orientation="0,-1"
       id="guide6"
       inkscape:locked="false" /><sodipodi:guide
       position="-196.96994,392.15967"
       orientation="1,0"
       id="guide59"
       inkscape:locked="false" /><sodipodi:guide
       position="-183.78884,317.82694"
       orientation="0,-1"
       id="guide60"
       inkscape:locked="false" /><sodipodi:guide
       position="-1154.3664,392.15967"
       orientation="1,0"
       id="guide61"
       inkscape:locked="false" /><sodipodi:guide
       position="-968.54405,530"
       orientation="0,-1"
       id="guide62"
       inkscape:locked="false" /><sodipodi:guide
       position="-1141.1853,378.97858"
       orientation="0,-1"
       id="guide22"
       inkscape:locked="false" /><sodipodi:guide
       position="-1140.7948,440.22315"
       orientation="0,-1"
       id="guide45"
       inkscape:locked="false" /><sodipodi:guide
       position="-296.50606,698.25751"
       orientation="1,0"
       id="guide7"
       inkscape:locked="false" /><inkscape:page
       x="0"
       y="0"
       width="490"
       height="1060"
       id="page2"
       margin="0"
       bleed="0"
       inkscape:export-filename="iphone_edgetoedge_portrait.pdf"
       inkscape:export-xdpi="96"
       inkscape:export-ydpi="96" /></sodipodi:namedview><g
     id="g50"
     inkscape:groupmode="layer"
     inkscape:label="Layer 1 copiar"
     transform="translate(-133.75423,293.81873)"
     style="display:inline"><g
       id="g54"
       transform="translate(1193.6593,179.3948)"><path
         id="path21"
         style="fill:#ffffff;stroke:none;stroke-width:0.999997;stroke-dasharray:none"
         inkscape:transform-center-x="-3.5843184"
         inkscape:transform-center-y="-1.4517057e-06"
         d="m -869.80408,248.03779 c -0.19115,-0.11036 0,-10.81581 0,-11.03653 0,-0.22073 -0.19115,-10.92617 0,-11.03654 0.19117,-0.11037 9.36677,5.4079 9.55793,5.51827 0.19115,0.11037 9.55792,5.29754 9.55792,5.51827 0,0.22072 -9.36677,5.40791 -9.55792,5.51827 -0.19116,0.11036 -9.36676,5.62864 -9.55793,5.51826 z" /><path
         id="path31"
         style="fill:#ffffff;stroke:none;stroke-width:0.999997;stroke-dasharray:none"
         inkscape:transform-center-x="-1.2485434e-06"
         inkscape:transform-center-y="3.5843226"
         d="m -938.31593,294.25466 c 0.11037,-0.19115 10.81581,0 11.03654,0 0.22073,0 10.92617,-0.19115 11.03654,0 0.11037,0.19116 -5.40791,9.36677 -5.51827,9.55793 -0.11037,0.19115 -5.29754,9.55792 -5.51827,9.55792 -0.22073,0 -5.40791,-9.36677 -5.51827,-9.55792 -0.11037,-0.19116 -5.62864,-9.36677 -5.51827,-9.55793 z" /><path
         id="path33"
         style="fill:#ffffff;stroke:none;stroke-width:0.999997;stroke-dasharray:none"
         inkscape:transform-center-x="3.5843165"
         inkscape:transform-center-y="-3.4332157e-06"
         d="m -1003.523,237.00126 c 0,-0.22074 9.36677,-5.40791 9.55793,-5.51827 0.19115,-0.11037 9.36676,-5.62864 9.55792,-5.51828 0.19116,0.11038 0,10.81581 0,11.03655 0,0.22072 0.19116,10.92617 0,11.03653 -0.19116,0.11037 -9.36677,-5.4079 -9.55792,-5.51827 -0.19116,-0.11036 -9.55793,-5.29754 -9.55793,-5.51826 z" /><path
         id="path35"
         style="fill:#ffffff;stroke:none;stroke-width:2.2803;stroke-dasharray:none"
         inkscape:transform-center-y="-3.5843146"
         transform="matrix(0,-0.43853911,0.43853911,0,-1118.8489,200.54074)"
         d="m 47.917978,462.00214 c -0.435898,-0.25166 0,-24.66327 0,-25.1666 0,-0.50333 -0.435898,-24.91493 0,-25.1666 0.435899,-0.25167 21.359018,12.33163 21.794916,12.5833 0.435898,0.25167 21.794915,12.07997 21.794915,12.5833 0,0.50333 -21.359018,12.33164 -21.794916,12.5833 -0.435898,0.25167 -21.359016,12.83497 -21.794915,12.5833 z"
         inkscape:original-d="m 47.917978,462.00214 c -0.435898,-0.25166 0,-24.66327 0,-25.1666 0,-0.50333 -0.435898,-24.91493 0,-25.1666 0.435899,-0.25167 21.359018,12.33163 21.794916,12.5833 0.435898,0.25167 21.794915,12.07997 21.794915,12.5833 0,0.50333 -21.359018,12.33164 -21.794916,12.5833 -0.435898,0.25167 -21.359016,12.83497 -21.794915,12.5833 z"
         inkscape:path-effect="#path-effect52" /><path
         style="fill:none;stroke:#ffffff;stroke-width:1.14023;stroke-linecap:round;stroke-linejoin:round;stroke-dasharray:none"
         d="M 102.41358,335.0924 H 51.244031 a 8.6769642,8.6769642 135 0 0 -8.676964,8.67696 v 57.81279 a 8.0942514,8.0942514 45 0 0 8.094251,8.09425 l 52.827922,0 a 7.2378256,7.2378256 45 0 1 7.23783,7.23783 v 52.61052 a 8.3076489,8.3076489 45 0 0 8.30765,8.30765 h 57.50454 a 8.7664713,8.7664713 135 0 0 8.76647,-8.76647 v -50.4628 a 8.9267278,8.9267278 135 0 1 8.92673,-8.92673 h 49.07012 a 10.159154,10.159154 135 0 0 10.15915,-10.15915 v -56.11136 a 8.3134933,8.3134933 45 0 0 -8.31349,-8.31349 h -51.52902 a 8.3134933,8.3134933 45 0 1 -8.31349,-8.31349 v -51.52902 a 8.3134933,8.3134933 45 0 0 -8.31349,-8.31349 h -61.34959 a 4.915585,4.915585 135 0 0 -4.91558,4.91558 l 0,54.92693 a 8.3134933,8.3134933 135 0 1 -8.31349,8.31349 z"
         id="path37"
         sodipodi:nodetypes="ccccccccccccc"
         inkscape:original-d="M 110.72707,335.0924 H 42.567067 v 74.584 h 68.160003 v 68.156 h 74.57866 v -68.156 h 68.156 v -74.584 h -68.156 v -68.156 h -74.57866 z"
         inkscape:path-effect="#path-effect54"
         transform="matrix(0.87701321,0,0,0.87701321,-1057.0791,-89.595427)" /></g><circle
       style="fill:none;stroke:#ffffff;stroke-width:1;stroke-linecap:round;stroke-linejoin:round;stroke-dasharray:none"
       id="circle37"
       cx="460.37939"
       cy="447.04364"
       r="36.889843" /><circle
       style="fill:none;stroke:#ffffff;stroke-width:1;stroke-linecap:round;stroke-linejoin:round;stroke-dasharray:none"
       id="circle38"
       cx="546.37976"
       cy="383.0434"
       r="36.889843" /><g
       id="g56"
       transform="translate(1454.6025,248.606)"><circle
         style="fill:none;stroke:#ffffff;stroke-width:0.815552;stroke-linecap:round;stroke-linejoin:round;stroke-dasharray:none"
         id="circle41"
         cx="-1020.6121"
         cy="387.2027"
         r="13.181093" /><path
         sodipodi:type="star"
         style="display:inline;fill:#ffffff;stroke:#ffffff;stroke-width:0.755906"
         id="path43"
         inkscape:flatsided="false"
         sodipodi:sides="3"
         sodipodi:cx="-105.68805"
         sodipodi:cy="423.20673"
         sodipodi:r1="9.4341669"
         sodipodi:r2="4.7170835"
         sodipodi:arg1="0"
         sodipodi:arg2="1.0471976"
         inkscape:rounded="0.02"
         inkscape:randomized="0"
         d="m -96.253882,423.20673 c 0,0.1634 -6.934118,4.00341 -7.075628,4.08511 -0.14151,0.0817 -6.93411,4.16682 -7.07562,4.08511 -0.14152,-0.0817 0,-8.00682 0,-8.17022 0,-0.16341 -0.14152,-8.08853 0,-8.17023 0.14151,-0.0817 6.93411,4.00341 7.07562,4.08511 0.14152,0.0817 7.075628,3.92171 7.075628,4.08512 z"
         inkscape:transform-center-x="-0.93665184"
         transform="matrix(0.39713438,0,0,0.39713438,-981.61396,219.0868)"
         inkscape:transform-center-y="4.434006e-06" /><path
         sodipodi:type="star"
         style="display:inline;fill:#ffffff;stroke:#ffffff;stroke-width:0.755906"
         id="path45"
         inkscape:flatsided="false"
         sodipodi:sides="3"
         sodipodi:cx="-105.68805"
         sodipodi:cy="423.20673"
         sodipodi:r1="9.4341669"
         sodipodi:r2="4.7170835"
         sodipodi:arg1="0"
         sodipodi:arg2="1.0471976"
         inkscape:rounded="0.02"
         inkscape:randomized="0"
         d="m -96.253882,423.20673 c 0,0.1634 -6.934118,4.00341 -7.075628,4.08511 -0.14151,0.0817 -6.93411,4.16682 -7.07562,4.08511 -0.14152,-0.0817 0,-8.00682 0,-8.17022 0,-0.16341 -0.14152,-8.08853 0,-8.17023 0.14151,-0.0817 6.93411,4.00341 7.07562,4.08511 0.14152,0.0817 7.075628,3.92171 7.075628,4.08512 z"
         inkscape:transform-center-x="-0.93665361"
         transform="matrix(0.39713438,0,0,0.39713438,-976.21329,218.95589)"
         inkscape:transform-center-y="5.4123946e-06" /></g><g
       id="g55"
       transform="translate(1400.6095,239.68461)"><path
         id="path41"
         style="fill:#ffffff;stroke:none;stroke-width:0.0360456;stroke-linecap:round;stroke-linejoin:round"
         d="m -1021.1527,441.29272 c -0.01,0.006 -1.9857,3.95215 -3.8819,7.73677 -0.2511,0.5012 -0.4526,0.91796 -0.4475,0.92606 0.01,0.008 0.4802,0.0146 1.0562,0.0146 0.8157,0 1.0509,-0.005 1.065,-0.023 0.01,-0.0127 0.6876,-1.35815 1.5063,-2.98997 0.8185,-1.63182 1.792,-3.56956 2.1634,-4.30606 0.3713,-0.7365 0.6707,-1.34338 0.6654,-1.34871 -0.011,-0.011 -2.1163,-0.0206 -2.1269,-0.01 z m 1.4916,3.08725 c -0.023,-6e-4 -1.0573,2.04717 -1.0586,2.09483 0,0.0185 0.2261,0.48297 0.5035,1.03207 0.5241,1.03727 2.5988,5.16703 3.1331,6.23659 l 0.306,0.61265 h 1.161 c 0.8272,0 1.161,-0.006 1.161,-0.0201 0,-0.011 -0.6416,-1.24872 -1.4257,-2.75038 -0.7841,-1.50165 -1.8429,-3.53059 -2.3529,-4.50868 -1.3419,-2.57324 -1.4071,-2.6963 -1.4274,-2.69698 z m -6.2472,6.39185 -0.5105,1.01363 c -0.2807,0.55746 -0.5108,1.02386 -0.5113,1.03653 0,0.0184 0.8604,0.023 4.2467,0.023 3.3865,0 4.2476,-0.005 4.2468,-0.023 0,-0.0127 -0.2305,-0.47907 -0.5113,-1.03653 l -0.5104,-1.01363 h -3.2251 z" /><circle
         style="fill:none;stroke:#ffffff;stroke-width:0.815552;stroke-linecap:round;stroke-linejoin:round;stroke-dasharray:none"
         id="circle45"
         cx="-1020.6121"
         cy="448.35434"
         r="13.181093" /></g><g
       id="g57"
       transform="translate(497.50349,301.67077)"><circle
         style="fill:none;stroke:#ffffff;stroke-width:0.815552;stroke-linecap:round;stroke-linejoin:round;stroke-dasharray:none"
         id="circle46"
         cx="-63.215694"
         cy="387.2027"
         r="13.181093" /><path
         sodipodi:type="star"
         style="fill:#ffffff;stroke:#ffffff;stroke-width:0.755906"
         id="path47"
         inkscape:flatsided="false"
         sodipodi:sides="3"
         sodipodi:cx="-105.68805"
         sodipodi:cy="423.20673"
         sodipodi:r1="9.4341669"
         sodipodi:r2="4.7170835"
         sodipodi:arg1="0"
         sodipodi:arg2="1.0471976"
         inkscape:rounded="0.02"
         inkscape:randomized="0"
         d="m -96.253882,423.20673 c 0,0.1634 -6.934118,4.00341 -7.075628,4.08511 -0.14151,0.0817 -6.93411,4.16682 -7.07562,4.08511 -0.14152,-0.0817 0,-8.00682 0,-8.17022 0,-0.16341 -0.14152,-8.08853 0,-8.17023 0.14151,-0.0817 6.93411,4.00341 7.07562,4.08511 0.14152,0.0817 7.075628,3.92171 7.075628,4.08512 z"
         inkscape:transform-center-x="-1.2654186"
         transform="matrix(0.53652633,0,0,0.53652633,-6.4290076,159.84882)"
         inkscape:transform-center-y="6.2130191e-06" /></g><g
       id="g58"
       transform="translate(389.66535,240.28472)"><circle
         style="fill:none;stroke:#ffffff;stroke-width:0.815552;stroke-linecap:round;stroke-linejoin:round;stroke-dasharray:none"
         id="circle47"
         cx="-63.215694"
         cy="448.35434"
         r="13.181093" /><rect
         style="fill:#ffffff;stroke:none;stroke-width:0.990245;stroke-linecap:round;stroke-linejoin:round;stroke-dasharray:none"
         id="rect47"
         width="10.399519"
         height="7.2140594"
         x="-68.415466"
         y="444.74731"
         ry="0.8773852" /></g><g
       id="g59"
       transform="translate(508.07042,187.03525)"><circle
         style="fill:none;stroke:#ffffff;stroke-width:0.815552;stroke-linecap:round;stroke-linejoin:round;stroke-dasharray:none"
         id="circle49"
         cx="-127.2157"
         cy="448.35434"
         r="13.181093" /><text
         xml:space="preserve"
         transform="matrix(0.71162019,0,0,0.71162019,-753.05109,172.9694)"
         id="text49"
         style="font-style:normal;font-variant:normal;font-weight:normal;font-stretch:normal;font-size:16px;line-height:1.2;font-family:'Jost*';-inkscape-font-specification:'Jost*';text-align:start;writing-mode:lr-tb;direction:ltr;white-space:pre;shape-inside:url(#rect50);display:inline;fill:#ffffff;stroke:none;stroke-linecap:round;stroke-linejoin:round"><tspan
           x="876.26953"
           y="392.31884"
           id="tspan1">L</tspan></text></g><g
       id="g60"
       transform="translate(454.42015,248.98275)"><circle
         style="fill:none;stroke:#ffffff;stroke-width:0.815552;stroke-linecap:round;stroke-linejoin:round;stroke-dasharray:none"
         id="circle48"
         cx="-127.2157"
         cy="387.2027"
         r="13.181093" /><text
         xml:space="preserve"
         transform="matrix(0.71162019,0,0,0.71162019,-753.87992,112.02647)"
         id="text50"
         style="font-style:normal;font-variant:normal;font-weight:normal;font-stretch:normal;font-size:16px;line-height:1.2;font-family:'Jost*';-inkscape-font-specification:'Jost*';text-align:start;writing-mode:lr-tb;direction:ltr;white-space:pre;shape-inside:url(#rect51);display:inline;fill:#ffffff;stroke:none;stroke-linecap:round;stroke-linejoin:round"><tspan
           x="876.26953"
           y="392.31884"
           id="tspan2">S</tspan></text></g></g></svg>
