<?xml version="1.0" encoding="UTF-8" standalone="no"?>
<!-- Created with Inkscape (http://www.inkscape.org/) -->

<svg
   version="1.1"
   id="svg1"
   width="490"
   height="1060"
   viewBox="0 0 490.00001 1060"
   sodipodi:docname="iphone_edgetoedge_portraitNES.svg"
   xml:space="preserve"
   inkscape:version="1.4.2 (f4327f4, 2025-05-13)"
   inkscape:export-filename="iphone_edgetoedge_portrait.pdf"
   inkscape:export-xdpi="96"
   inkscape:export-ydpi="96"
   xmlns:inkscape="http://www.inkscape.org/namespaces/inkscape"
   xmlns:sodipodi="http://sodipodi.sourceforge.net/DTD/sodipodi-0.dtd"
   xmlns="http://www.w3.org/2000/svg"
   xmlns:svg="http://www.w3.org/2000/svg"><defs
     id="defs1"><inkscape:path-effect
       effect="fillet_chamfer"
       id="path-effect54"
       is_visible="true"
       lpeversion="1"
       nodesatellites_param="F,0,1,1,0,8.3134933,0,1 @ F,0,0,1,0,8.6769642,0,1 @ F,0,0,1,0,8.0942514,0,1 @ F,0,0,1,0,7.2378256,0,1 @ F,0,0,1,0,8.3076489,0,1 @ F,0,0,1,0,8.7664713,0,1 @ F,0,0,1,0,8.9267278,0,1 @ F,0,0,1,0,10.159154,0,1 @ F,0,1,1,0,8.3134933,0,1 @ F,0,1,1,0,8.3134933,0,1 @ F,0,0,1,0,8.3134933,0,1 @ F,0,0,1,0,4.915585,0,1"
       radius="0"
       unit="px"
       method="auto"
       mode="F"
       chamfer_steps="1"
       flexible="false"
       use_knot_distance="true"
       apply_no_radius="true"
       apply_with_radius="true"
       only_selected="false"
       hide_knots="false" /><inkscape:path-effect
       effect="fillet_chamfer"
       id="path-effect52"
       is_visible="true"
       lpeversion="1"
       nodesatellites_param="F,0,0,1,0,0,0,1 @ F,0,0,1,0,0,0,1 @ F,0,0,1,0,0,0,1 @ F,0,0,1,0,0,0,1 @ F,0,0,1,0,0,0,1 @ F,0,0,1,0,0,0,1"
       radius="0"
       unit="px"
       method="auto"
       mode="F"
       chamfer_steps="1"
       flexible="false"
       use_knot_distance="true"
       apply_no_radius="true"
       apply_with_radius="true"
       only_selected="false"
       hide_knots="false" /><rect
       x="876.26935"
       y="378.87079"
       width="15.823603"
       height="18.51063"
       id="rect50" /><rect
       x="876.26935"
       y="378.87079"
       width="15.823603"
       height="18.51063"
       id="rect51" /><rect
       x="876.26935"
       y="378.87079"
       width="15.823603"
       height="18.51063"
       id="rect23-4" /></defs><sodipodi:namedview
     id="namedview1"
     pagecolor="#505050"
     bordercolor="#eeeeee"
     borderopacity="1"
     inkscape:showpageshadow="0"
     inkscape:pageopacity="0"
     inkscape:pagecheckerboard="0"
     inkscape:deskcolor="#505050"
     showguides="true"
     inkscape:zoom="0.8373567"
     inkscape:cx="216.75351"
     inkscape:cy="540.39097"
     inkscape:window-width="1920"
     inkscape:window-height="1051"
     inkscape:window-x="-9"
     inkscape:window-y="-9"
     inkscape:window-maximized="1"
     inkscape:current-layer="g50"
     inkscape:lockguides="false"><sodipodi:guide
       position="-1051.4437,698.25751"
       orientation="1,0"
       id="guide57"
       inkscape:locked="false" /><sodipodi:guide
       position="-1119.7764,704.75751"
       orientation="0,-1"
       id="guide58"
       inkscape:locked="false" /><sodipodi:guide
       position="-1255.7458,322"
       orientation="0,-1"
       id="guide1"
       inkscape:locked="false" /><sodipodi:guide
       position="-229.13958,736.95213"
       orientation="0,-1"
       id="guide2"
       inkscape:locked="false" /><sodipodi:guide
       position="-1167.9228,452.66406"
       orientation="1,0"
       id="guide3"
       inkscape:locked="false" /><sodipodi:guide
       position="-183.29284,792.35927"
       orientation="1,0"
       id="guide4"
       inkscape:locked="false" /><sodipodi:guide
       position="-673.91894,766.18127"
       orientation="1,0"
       id="guide5"
       inkscape:locked="false" /><sodipodi:guide
       position="-143.75424,521.29046"
       orientation="0,-1"
       id="guide6"
       inkscape:locked="false" /><sodipodi:guide
       position="-196.96994,392.15967"
       orientation="1,0"
       id="guide59"
       inkscape:locked="false" /><sodipodi:guide
       position="-183.78884,317.82694"
       orientation="0,-1"
       id="guide60"
       inkscape:locked="false" /><sodipodi:guide
       position="-1154.3664,392.15967"
       orientation="1,0"
       id="guide61"
       inkscape:locked="false" /><sodipodi:guide
       position="-968.54405,530"
       orientation="0,-1"
       id="guide62"
       inkscape:locked="false" /><sodipodi:guide
       position="-1141.1853,378.97858"
       orientation="0,-1"
       id="guide22"
       inkscape:locked="false" /><sodipodi:guide
       position="-1140.7948,440.22315"
       orientation="0,-1"
       id="guide45"
       inkscape:locked="false" /><sodipodi:guide
       position="-296.50606,698.25751"
       orientation="1,0"
       id="guide7"
       inkscape:locked="false" /><inkscape:page
       x="0"
       y="0"
       width="490"
       height="1060"
       id="page2"
       margin="0"
       bleed="0"
       inkscape:export-filename="iphone_edgetoedge_portrait.pdf"
       inkscape:export-xdpi="96"
       inkscape:export-ydpi="96" /><sodipodi:guide
       position="146.76193,975.60632"
       orientation="0,-1"
       id="guide8"
       inkscape:locked="false" /><sodipodi:guide
       position="40.157851,349.54034"
       orientation="1,0"
       id="guide9"
       inkscape:locked="false" /><sodipodi:guide
       position="450.01538,345.74803"
       orientation="1,0"
       id="guide10"
       inkscape:locked="false" /></sodipodi:namedview><g
     id="g50"
     inkscape:groupmode="layer"
     inkscape:label="Layer 1 copiar"
     transform="translate(-133.75423,293.81873)"
     style="display:inline"><g
       id="g54"
       transform="translate(1193.6593,179.3948)"><path
         id="path21"
         style="fill:#ffffff;stroke:none;stroke-width:0.999997;stroke-dasharray:none"
         inkscape:transform-center-x="-3.5843184"
         inkscape:transform-center-y="-1.4517057e-06"
         d="m -869.80408,248.03779 c -0.19115,-0.11036 0,-10.81581 0,-11.03653 0,-0.22073 -0.19115,-10.92617 0,-11.03654 0.19117,-0.11037 9.36677,5.4079 9.55793,5.51827 0.19115,0.11037 9.55792,5.29754 9.55792,5.51827 0,0.22072 -9.36677,5.40791 -9.55792,5.51827 -0.19116,0.11036 -9.36676,5.62864 -9.55793,5.51826 z" /><path
         id="path31"
         style="fill:#ffffff;stroke:none;stroke-width:0.999997;stroke-dasharray:none"
         inkscape:transform-center-x="-1.2485434e-06"
         inkscape:transform-center-y="3.5843226"
         d="m -938.31593,294.25466 c 0.11037,-0.19115 10.81581,0 11.03654,0 0.22073,0 10.92617,-0.19115 11.03654,0 0.11037,0.19116 -5.40791,9.36677 -5.51827,9.55793 -0.11037,0.19115 -5.29754,9.55792 -5.51827,9.55792 -0.22073,0 -5.40791,-9.36677 -5.51827,-9.55792 -0.11037,-0.19116 -5.62864,-9.36677 -5.51827,-9.55793 z" /><path
         id="path33"
         style="fill:#ffffff;stroke:none;stroke-width:0.999997;stroke-dasharray:none"
         inkscape:transform-center-x="3.5843165"
         inkscape:transform-center-y="-3.4332157e-06"
         d="m -1003.523,237.00126 c 0,-0.22074 9.36677,-5.40791 9.55793,-5.51827 0.19115,-0.11037 9.36676,-5.62864 9.55792,-5.51828 0.19116,0.11038 0,10.81581 0,11.03655 0,0.22072 0.19116,10.92617 0,11.03653 -0.19116,0.11037 -9.36677,-5.4079 -9.55792,-5.51827 -0.19116,-0.11036 -9.55793,-5.29754 -9.55793,-5.51826 z" /><path
         id="path35"
         style="fill:#ffffff;stroke:none;stroke-width:2.2803;stroke-dasharray:none"
         inkscape:transform-center-y="-3.5843146"
         transform="matrix(0,-0.43853911,0.43853911,0,-1118.8489,200.54074)"
         d="m 47.917978,462.00214 c -0.435898,-0.25166 0,-24.66327 0,-25.1666 0,-0.50333 -0.435898,-24.91493 0,-25.1666 0.435899,-0.25167 21.359018,12.33163 21.794916,12.5833 0.435898,0.25167 21.794915,12.07997 21.794915,12.5833 0,0.50333 -21.359018,12.33164 -21.794916,12.5833 -0.435898,0.25167 -21.359016,12.83497 -21.794915,12.5833 z"
         inkscape:original-d="m 47.917978,462.00214 c -0.435898,-0.25166 0,-24.66327 0,-25.1666 0,-0.50333 -0.435898,-24.91493 0,-25.1666 0.435899,-0.25167 21.359018,12.33163 21.794916,12.5833 0.435898,0.25167 21.794915,12.07997 21.794915,12.5833 0,0.50333 -21.359018,12.33164 -21.794916,12.5833 -0.435898,0.25167 -21.359016,12.83497 -21.794915,12.5833 z"
         inkscape:path-effect="#path-effect52" /><path
         style="fill:none;stroke:#ffffff;stroke-width:1.14023;stroke-linecap:round;stroke-linejoin:round;stroke-dasharray:none"
         d="M 102.41358,335.0924 H 51.244031 a 8.6769642,8.6769642 135 0 0 -8.676964,8.67696 v 57.81279 a 8.0942514,8.0942514 45 0 0 8.094251,8.09425 l 52.827922,0 a 7.2378256,7.2378256 45 0 1 7.23783,7.23783 v 52.61052 a 8.3076489,8.3076489 45 0 0 8.30765,8.30765 h 57.50454 a 8.7664713,8.7664713 135 0 0 8.76647,-8.76647 v -50.4628 a 8.9267278,8.9267278 135 0 1 8.92673,-8.92673 h 49.07012 a 10.159154,10.159154 135 0 0 10.15915,-10.15915 v -56.11136 a 8.3134933,8.3134933 45 0 0 -8.31349,-8.31349 h -51.52902 a 8.3134933,8.3134933 45 0 1 -8.31349,-8.31349 v -51.52902 a 8.3134933,8.3134933 45 0 0 -8.31349,-8.31349 h -61.34959 a 4.915585,4.915585 135 0 0 -4.91558,4.91558 l 0,54.92693 a 8.3134933,8.3134933 135 0 1 -8.31349,8.31349 z"
         id="path37"
         sodipodi:nodetypes="ccccccccccccc"
         inkscape:original-d="M 110.72707,335.0924 H 42.567067 v 74.584 h 68.160003 v 68.156 h 74.57866 v -68.156 h 68.156 v -74.584 h -68.156 v -68.156 h -74.57866 z"
         inkscape:path-effect="#path-effect54"
         transform="matrix(0.87701321,0,0,0.87701321,-1057.0791,-89.595427)" /></g><circle
       style="fill:none;stroke:#ffffff;stroke-width:1;stroke-linecap:round;stroke-linejoin:round;stroke-dasharray:none"
       id="circle37"
       cx="460.37939"
       cy="447.04364"
       r="36.889843" /><circle
       style="fill:none;stroke:#ffffff;stroke-width:1;stroke-linecap:round;stroke-linejoin:round;stroke-dasharray:none"
       id="circle38"
       cx="546.37976"
       cy="383.0434"
       r="36.889843" /><g
       id="g57"
       transform="translate(304.3889,327.37226)"><circle
         style="fill:none;stroke:#ffffff;stroke-width:0.815552;stroke-linecap:round;stroke-linejoin:round;stroke-dasharray:none"
         id="circle46"
         cx="-63.215694"
         cy="387.2027"
         r="13.181093" /><path
         sodipodi:type="star"
         style="fill:#ffffff;stroke:#ffffff;stroke-width:0.755906"
         id="path47"
         inkscape:flatsided="false"
         sodipodi:sides="3"
         sodipodi:cx="-105.68805"
         sodipodi:cy="423.20673"
         sodipodi:r1="9.4341669"
         sodipodi:r2="4.7170835"
         sodipodi:arg1="0"
         sodipodi:arg2="1.0471976"
         inkscape:rounded="0.02"
         inkscape:randomized="0"
         d="m -96.253882,423.20673 c 0,0.1634 -6.934118,4.00341 -7.075628,4.08511 -0.14151,0.0817 -6.93411,4.16682 -7.07562,4.08511 -0.14152,-0.0817 0,-8.00682 0,-8.17022 0,-0.16341 -0.14152,-8.08853 0,-8.17023 0.14151,-0.0817 6.93411,4.00341 7.07562,4.08511 0.14152,0.0817 7.075628,3.92171 7.075628,4.08512 z"
         inkscape:transform-center-x="-1.2654186"
         transform="matrix(0.53652633,0,0,0.53652633,-6.4290076,159.84882)"
         inkscape:transform-center-y="6.2130191e-06" /></g><g
       id="g58"
       transform="translate(250.55076,266.22061)"><circle
         style="fill:none;stroke:#ffffff;stroke-width:0.815552;stroke-linecap:round;stroke-linejoin:round;stroke-dasharray:none"
         id="circle47"
         cx="-63.215694"
         cy="448.35434"
         r="13.181093" /><rect
         style="fill:#ffffff;stroke:none;stroke-width:0.990245;stroke-linecap:round;stroke-linejoin:round;stroke-dasharray:none"
         id="rect47"
         width="10.399519"
         height="7.2140594"
         x="-68.415466"
         y="444.74731"
         ry="0.8773852" /></g><circle
       style="display:inline;fill:none;stroke:#ffffff;stroke-width:0.815552;stroke-linecap:round;stroke-linejoin:round;stroke-dasharray:none"
       id="circle54"
       cx="515.17322"
       cy="714.57495"
       r="13.181093" /><circle
       style="display:inline;fill:none;stroke:#ffffff;stroke-width:0.815552;stroke-linecap:round;stroke-linejoin:round;stroke-dasharray:none"
       id="circle22"
       cx="569.17322"
       cy="714.57495"
       r="13.181093" /><text
       xml:space="preserve"
       transform="matrix(0.71162019,0,0,0.71162019,-59.0261,439.19001)"
       id="text22-2"
       style="font-style:normal;font-variant:normal;font-weight:normal;font-stretch:normal;font-size:16px;line-height:1.2;font-family:'Jost*';-inkscape-font-specification:'Jost*';text-align:start;writing-mode:lr-tb;direction:ltr;white-space:pre;shape-inside:url(#rect23-4);display:inline;fill:#ffffff;stroke:none;stroke-linecap:round;stroke-linejoin:round"><tspan
         x="876.26953"
         y="392.31884"
         id="tspan2">Q</tspan></text><path
       style="display:inline;fill:#ffffff;stroke-width:0.0367644"
       d="m 508.14001,719.0772 c -0.3607,-0.12677 -0.6307,-0.42233 -0.7179,-0.78582 l -0.045,-0.18668 0.02,-0.17184 0.02,-0.17184 1.183,-3.14209 c 0.6507,-1.72815 1.2335,-3.23774 1.2952,-3.35464 l 0.1122,-0.21254 0.2299,-0.21515 0.23,-0.21515 0.1963,-0.0951 c 0.1079,-0.0523 0.2948,-0.1204 0.4154,-0.15135 l 0.2191,-0.0563 1.0125,10e-4 1.0125,10e-4 0.138,0.0634 0.1381,0.0634 3.4237,3.40071 c 1.8831,1.87039 3.4462,3.41381 3.4736,3.42983 l 0.05,0.0291 0.074,-0.0396 0.074,-0.0396 v -0.0817 c 0,-0.045 -0.1803,-0.55311 -0.4008,-1.12922 -0.2205,-0.5761 -0.6093,-1.59194 -0.8641,-2.25743 l -0.4633,-1.20997 -0.09,-0.11756 c -0.049,-0.0647 -0.1526,-0.14885 -0.2296,-0.18708 l -0.14,-0.0695 -0.8088,-0.0189 -0.8088,-0.019 -0.1103,-0.0479 -0.1103,-0.0479 -0.8228,-0.82047 -0.8227,-0.82047 0.025,-0.041 0.025,-0.041 h 1.9413 1.9413 l 0.1981,0.0373 c 0.1089,0.0205 0.3189,0.0946 0.4667,0.16465 l 0.2687,0.12733 0.2142,0.21415 0.2141,0.21416 0.1016,0.20023 c 0.09,0.17777 0.5478,1.35634 2.083,5.36564 l 0.4434,1.15808 7e-4,0.23982 8e-4,0.23983 -0.081,0.18297 c -0.1011,0.22904 -0.2984,0.43605 -0.5366,0.56297 l -0.1839,0.0979 h -1.1029 -1.1029 l -0.1838,-0.0692 -0.1839,-0.0692 -3.3823,-3.37131 -3.3823,-3.37132 -0.1514,-0.043 c -0.1909,-0.0542 -0.685,-0.0553 -0.8772,-0.002 l -0.1462,0.0406 -0.133,0.13384 -0.1329,0.13382 -0.156,0.40441 c -0.2506,0.64977 -1.5357,4.07265 -1.5641,4.16621 l -0.026,0.0854 0.064,0.0709 c 0.035,0.039 0.089,0.0709 0.1197,0.0709 h 0.055 l 0.8671,-0.8573 0.8671,-0.85731 0.1731,-0.0797 c 0.095,-0.0438 0.2441,-0.096 0.3309,-0.11605 l 0.1577,-0.0364 1.0111,-7e-5 1.011,-7e-5 0.1638,0.0743 0.1638,0.0743 0.8067,0.80203 0.8066,0.80203 -0.026,0.042 -0.026,0.042 -1.7165,10e-4 -1.7166,0.001 -0.1368,0.0634 -0.1368,0.0634 -0.8191,0.8101 -0.819,0.8101 -0.1839,0.0906 -0.1838,0.0906 -1.0661,0.009 -1.0662,0.009 z"
       id="path21-4" /></g></svg>
